<?xml version="1.0" encoding="UTF-8" standalone="no"?>
<!-- Created with Inkscape (http://www.inkscape.org/) -->

<svg
   width="260"
   height="260"
   viewBox="0 0 68.7908 68.7908"
   version="1.1"
   id="svg827"
   inkscape:version="1.1.2 (b8e25be833, 2022-02-05)"
   sodipodi:docname="barco.svg"
   xmlns:inkscape="http://www.inkscape.org/namespaces/inkscape"
   xmlns:sodipodi="http://sodipodi.sourceforge.net/DTD/sodipodi-0.dtd"
   xmlns="http://www.w3.org/2000/svg"
   xmlns:svg="http://www.w3.org/2000/svg">
  <sodipodi:namedview
     id="namedview829"
     pagecolor="#505050"
     bordercolor="#eeeeee"
     borderopacity="1"
     inkscape:pageshadow="0"
     inkscape:pageopacity="0"
     inkscape:pagecheckerboard="0"
     inkscape:document-units="px"
     showgrid="false"
     units="px"
     scale-x="0.26458"
     inkscape:zoom="1.6682558"
     inkscape:cx="129.77626"
     inkscape:cy="154.65254"
     inkscape:window-width="1366"
     inkscape:window-height="745"
     inkscape:window-x="-8"
     inkscape:window-y="-8"
     inkscape:window-maximized="1"
     inkscape:current-layer="layer1" />
  <defs
     id="defs824" />
  <g
     inkscape:label="Camada 1"
     inkscape:groupmode="layer"
     id="layer1">
    <path
       style="fill:#bb133e;stroke:#1a1a1a;stroke-width:3.3054;stroke-linecap:round;stroke-linejoin:round;stroke-dashoffset:1.4"
       id="path961"
       d="m 3.9731545,46.211477 c 0.5934897,-0.02127 0.6811397,-0.01688 1.3976536,-0.09526 2.949944,-0.322732 5.8741799,-0.861808 8.7925209,-1.38819 3.83302,-0.724449 7.658594,-1.509844 11.429507,-2.513764 2.224431,-0.592202 2.539807,-0.714363 4.69198,-1.385002 3.178217,-1.054717 6.286411,-2.341441 9.257779,-3.888548 0.50703,-0.263996 1.004687,-0.545615 1.507029,-0.818423 2.267474,-1.291717 4.532179,-2.612064 6.632161,-4.168244 0.796248,-0.590058 1.069509,-0.831643 1.823255,-1.453838 1.534212,-1.2133 2.949469,-2.559171 4.31009,-3.961093 1.090649,-1.157441 1.98593,-2.47475 2.877443,-3.785871 0.783545,-1.15091 1.521242,-2.331366 2.307092,-3.48077 0.54617,-0.874824 1.060326,-1.772453 1.511927,-2.700147 0.316123,-0.597608 0.599437,-1.210103 0.851302,-1.83751 0.240614,-0.59969 0.483438,-1.196763 0.679346,-1.81298 -0.239728,0.142471 0.344536,-0.570929 0.190521,-0.48838 -0.671006,0.359647 -1.296301,0.798765 -1.941668,1.202619 -0.01632,0.01022 -0.04294,0.01981 -0.04258,0.03908 0.0027,0.148367 0.03887,0.294337 0.05137,0.442201 0.01918,0.227017 0.02911,0.454722 0.04367,0.682083 0.04713,2.159544 -0.05745,4.317714 -0.117852,6.475799 -0.07238,2.624988 0.147064,5.243429 0.303359,7.861072 0.09599,1.947272 0.213228,3.906328 0.03988,5.853563 -0.03099,0.348113 -0.08592,0.693678 -0.128882,1.040519 -0.313919,2.012544 -0.951414,3.945316 -1.719045,5.82489 -0.775862,1.977085 -1.807751,3.833648 -2.879549,5.661824 -1.224965,2.015248 -2.633145,3.907839 -4.140748,5.718331 -1.387619,1.55418 -2.926586,2.979636 -4.622382,4.193265 -0.333514,0.238688 -0.678256,0.461279 -1.017384,0.691919 -0.302436,0.185669 -1.811458,1.124499 -2.132877,1.271875 -0.271219,0.124358 1.052412,-0.521003 0.757265,-0.47726 -0.393894,0.05837 -0.712091,0.356895 -1.07347,0.524123 -0.748595,0.346409 -1.403782,0.605047 -2.166585,0.917672 -2.345928,0.903683 -4.788432,1.514784 -7.231911,2.087377 -2.293432,0.547723 -4.625715,0.863269 -6.974381,1.034479 -1.349679,0.07602 -2.709517,0.02717 -4.041573,-0.213212 -0.85678,-0.154615 -1.05106,-0.228946 -1.890102,-0.460867 C 19.320831,62.143767 17.478344,61.14075 15.727048,60.007117 14.120638,58.908372 12.768414,57.507355 11.485361,56.05712 10.324537,54.795613 9.3099979,53.415987 8.3085536,52.028059 7.5363541,50.953512 6.8843073,49.800973 6.2780884,48.626917 5.8722041,47.798131 5.5001375,46.950345 5.187007,46.081885 5.155557,46.006695 5.124106,45.931503 5.092656,45.856312 c 0,0 -2.0456072,1.15277 -2.0456072,1.15277 v 0 c 0.033181,0.06979 0.066361,0.139574 0.099541,0.20936 0.3558172,0.858078 0.7565223,1.697992 1.1614824,2.533671 0.6128384,1.184503 1.2854722,2.338554 2.076369,3.414653 1.0234677,1.381322 2.0455223,2.765531 3.2117324,4.032276 1.2978134,1.465977 2.6807474,2.868931 4.3015744,3.982194 1.758104,1.150629 3.610882,2.168497 5.600365,2.863615 0.856359,0.245557 1.030505,0.317091 1.906324,0.482084 1.344486,0.253282 2.719216,0.313061 4.083867,0.24345 2.367626,-0.172427 4.718263,-0.489563 7.031544,-1.035415 2.442068,-0.563997 4.883054,-1.167528 7.234218,-2.046222 0.716599,-0.290665 1.474488,-0.589447 2.178644,-0.909724 2.132322,-0.969863 4.126607,-2.219308 6.120744,-3.441014 0.339046,-0.234336 0.683886,-0.460507 1.01714,-0.703013 1.686724,-1.227407 3.212676,-2.66849 4.589797,-4.232541 1.515479,-1.828648 2.941447,-3.732431 4.168598,-5.769128 1.068517,-1.838561 2.096402,-3.703908 2.868192,-5.690637 0.767571,-1.896009 1.410482,-3.844871 1.695217,-5.878597 0.03858,-0.350052 0.08885,-0.699015 0.115736,-1.05016 0.149294,-1.949968 0.01892,-3.910675 -0.08272,-5.85878 -0.169437,-2.611063 -0.399498,-5.224423 -0.292419,-7.843774 0.0838,-2.180121 0.183393,-4.359917 0.213733,-6.54168 -2.65e-4,-0.02971 -0.0016,-1.071479 -0.02776,-1.211827 -0.02498,-0.133338 -0.01717,-0.430025 -0.14359,-0.380802 -1.869684,0.728023 -1.891118,0.644013 -2.241612,1.737852 -0.198554,0.612462 -0.45503,1.201936 -0.692448,1.799984 -0.250944,0.614061 -0.533494,1.213467 -0.826688,1.808366 -0.448519,0.912595 -0.955142,1.796691 -1.495579,2.6577 -0.770618,1.148161 -1.49303,2.327634 -2.2772,3.466793 -0.89001,1.29738 -1.780203,2.604125 -2.87355,3.742752 -1.347271,1.387981 -2.755318,2.713365 -4.270613,3.918612 -0.918272,0.75505 -1.844924,1.484148 -2.824941,2.158809 -0.969826,0.667646 -1.394694,0.921193 -2.40553,1.55936 -0.11342,0.07786 0.246258,-0.122723 0.369385,-0.184087 -0.506562,0.279143 -1.008314,0.567196 -1.519684,0.837425 -2.991831,1.580995 -6.126503,2.891381 -9.327434,3.983474 -2.163426,0.692231 -2.513052,0.828167 -4.749574,1.442011 -3.764407,1.033191 -7.588727,1.833799 -11.428334,2.5307 -2.463866,0.421421 -2.770166,0.499284 -5.160666,0.815221 -1.3667823,0.18064 -2.7631046,0.367547 -4.1454769,0.387785 -0.1405306,0.0021 -0.2808691,-0.01116 -0.4213037,-0.01675 0,0 -1.910974,1.388402 -1.910974,1.388402 z" />
    <path
       style="fill:#bb133e;stroke:#1a1a1a;stroke-width:2.69381;stroke-linecap:round;stroke-linejoin:round;stroke-dashoffset:1.4"
       id="path967"
       d="M 38.760362,36.814896 C 37.941501,35.408809 37.278554,33.899124 36.602423,32.406556 35.820148,30.626051 35.021496,28.849498 34.415478,26.984792 34.30582,26.647379 34.209481,26.304916 34.106485,25.964982 33.626241,24.203993 33.240858,22.413395 32.888911,20.616847 32.643278,19.233796 32.3877,17.85237 32.158031,16.465988 31.965005,15.475335 31.894646,14.462638 31.723342,13.468489 31.599026,12.732641 31.450497,12.003009 31.24484,11.289361 31.079578,10.705027 30.9188,10.120871 30.769993,9.5313356 30.644492,9.0883539 30.523585,8.6428304 30.418514,8.1933478 30.383446,8.0426384 30.36606,7.8885737 30.350004,7.7344227 c 0,0 -1.625019,0.9390929 -1.625019,0.9390929 v 0 c 0.02184,0.1612006 0.04503,0.3221931 0.08635,0.4791384 0.116258,0.445646 0.242058,0.888481 0.367065,1.331215 0.155531,0.588185 0.320869,1.17212 0.487593,1.756676 0.200165,0.705284 0.36169,1.422302 0.48607,2.148563 0.171978,0.989648 0.260903,1.995436 0.465547,2.97898 0.24406,1.381778 0.507891,2.759614 0.763127,4.138905 0.37311,1.793068 0.775093,3.580965 1.271947,5.3381 0.105898,0.341233 0.204622,0.685258 0.317697,1.023701 0.622251,1.862527 1.438694,3.633774 2.213109,5.422844 0.6542,1.514542 1.313699,3.026436 1.983228,4.532844 0,0 1.593611,-1.009586 1.593611,-1.009586 z" />
    <path
       style="fill:#2b1100;stroke:#1a1a1a;stroke-width:3.3054;stroke-linecap:round;stroke-linejoin:round;stroke-dashoffset:1.4"
       id="path969"
       d="m 28.72503,8.6735526 c -0.09665,0.053837 -0.194884,0.1049179 -0.289945,0.161511 -0.797148,0.4745716 -1.600183,0.939676 -2.386551,1.4319044 -0.180429,0.11294 -0.343543,0.251533 -0.511588,0.382189 -0.706973,0.549679 -1.371173,1.146591 -2.037698,1.74383 -1.827799,1.608016 -3.58683,3.291854 -5.390976,4.926157 -1.631958,1.469637 -3.324906,2.860378 -5.111201,4.137522 -0.54818,0.383452 -1.082296,0.781214 -1.653277,1.130289 -0.139867,0.08551 -0.564127,0.334278 -0.42228,0.252094 1.795847,-1.040491 2.170941,-1.209486 1.314976,-0.800276 -0.09149,0.03918 -0.182371,0.0798 -0.274467,0.117528 -0.200256,0.08203 -0.254889,0.09979 -0.453767,0.164604 -0.03947,0.01286 -0.324729,0.09882 -0.370328,0.12808 -0.703245,0.451236 -1.3927127,0.923593 -2.089069,1.385389 0.02482,0.115996 0.026967,0.239289 0.07446,0.347987 0.1502987,0.343989 0.5145581,0.781765 0.745228,1.045804 0.641924,0.734786 1.363986,1.375343 2.097279,2.015542 1.795344,1.444848 3.795767,2.599377 5.825586,3.677059 1.820992,1.011471 3.782085,1.697072 5.76282,2.314972 1.727483,0.516828 3.502292,0.836456 5.285204,1.086193 1.34096,0.187156 2.693729,0.247579 4.045632,0.284355 0.548133,0.01339 1.096377,0.019 1.644634,0.02379 0,0 1.883117,-1.368651 1.883117,-1.368651 v 0 c -0.560063,0.0066 -1.120182,0.01196 -1.680287,0.008 -1.362215,-0.01545 -2.725597,-0.06229 -4.079038,-0.228446 -1.78307,-0.234603 -3.556955,-0.544771 -5.288537,-1.039546 -1.978303,-0.607317 -3.940995,-1.272251 -5.766724,-2.263931 -2.020183,-1.058207 -4.008093,-2.196509 -5.778778,-3.645884 -0.714056,-0.635163 -1.418139,-1.264302 -2.017865,-2.012933 -0.191258,-0.238745 -0.509924,-0.656179 -0.608347,-0.981723 -0.02203,-0.07288 0.0045,-0.152202 0.0067,-0.228303 -0.636212,0.349813 -1.2721019,0.700212 -1.9086359,1.049439 -0.053325,0.02926 0.1034545,-0.06474 0.1590015,-0.08952 0.310994,-0.138736 0.6653034,-0.171929 0.9642614,-0.344656 1.672359,-0.7087 3.170036,-1.788827 4.639241,-2.841201 1.752733,-1.284556 3.418578,-2.673969 5.030859,-4.131192 1.81146,-1.649934 3.588308,-3.338593 5.440361,-4.943394 0.608866,-0.533339 0.861192,-0.766714 1.482367,-1.264593 0.207587,-0.166385 0.418605,-0.328546 0.632153,-0.4872102 0.178737,-0.1327995 0.745457,-0.4828918 0.544482,-0.3870186 -0.538479,0.2568752 -1.040636,0.5838398 -1.562644,0.8727218 -0.08513,0.04711 0.167968,-0.09825 0.251951,-0.147379 0,0 1.851645,-1.4811404 1.851645,-1.4811404 z" />
    <path
       style="fill:#803300;stroke:#1a1a1a;stroke-width:7.48866;stroke-linecap:round;stroke-linejoin:round;stroke-dashoffset:1.4"
       d="m 93.211124,233.13471 c -2.472642,-0.22917 -6.249042,-0.87134 -8.391998,-1.42705 -4.766088,-1.23595 -14.328059,-5.73032 -20.380568,-9.57938 -8.982301,-5.71224 -24.253915,-23.04793 -32.052163,-36.38425 -1.791953,-3.06454 -3.189562,-5.64043 -3.105797,-5.72419 0.08376,-0.0838 5.707011,-1.09671 12.496103,-2.25098 64.959869,-11.04442 99.736399,-23.13906 135.953839,-47.28228 14.3699,-9.57925 31.17205,-25.19047 38.67059,-35.929635 2.24557,-3.216026 4.20465,-5.725523 4.35351,-5.57666 0.41015,0.410152 1.88104,27.283865 1.90872,34.873025 0.0307,8.42482 -1.16864,15.3232 -4.30473,24.75956 -6.2831,18.90551 -19.78971,40.47079 -33.81712,53.99395 -13.70037,13.20787 -26.33237,19.47543 -52.04167,25.82125 -15.2531,3.76493 -30.16923,5.55182 -39.288716,4.70664 z"
       id="path1656"
       transform="scale(0.26458)" />
    <path
       style="fill:#ffffff;stroke:#1a1a1a;stroke-width:7.48866;stroke-linecap:round;stroke-linejoin:round;stroke-dashoffset:1.4"
       d="M 110.29483,117.44697 C 102.03857,116.01571 90.974454,112.7449 83.858631,109.63182 72.642332,104.72483 58.981191,96.303386 54.178518,91.335446 52.449815,89.547256 52.290776,89.158271 53.101633,88.701552 57.90609,85.995426 71.820943,75.009368 80.861287,66.784743 100.25553,49.140462 104.96402,44.989118 105.59932,44.973893 c 0.76068,-0.01823 2.71147,7.74026 3.7638,14.968952 2.93185,20.139664 8.08109,42.292295 12.37,53.217135 1.12687,2.87039 2.04885,5.28818 2.04885,5.37287 0,0.51903 -7.89671,-0.11675 -13.48714,-1.08588 z"
       id="path1792"
       transform="scale(0.26458)" />
    <path
       style="fill:#ffffff;stroke:#1a1a1a;stroke-width:7.48866;stroke-linecap:round;stroke-linejoin:round;stroke-dashoffset:1.4"
       d="m 102.40509,43.719642 c -6.656693,1.815536 -10.775887,8.095476 -16.066316,12.122236 -10.552681,9.866825 -21.8178,18.931131 -33.173451,27.82405 -4.569794,4.313515 -2.729615,12.136869 2.633538,14.906866 18.023953,12.825736 38.985662,21.859576 61.055739,24.410726 6.86749,0.66227 11.62977,-7.51451 8.35804,-13.3689 -6.45469,-19.293139 -9.32961,-39.394207 -13.16518,-59.446439 -1.23105,-4.18482 -5.30089,-6.902719 -9.64237,-6.448539 z"
       id="path1942"
       transform="scale(0.26458)" />
    <path
       style="fill:#ffffff;stroke:#1a1a1a;stroke-width:7.48866;stroke-linecap:round;stroke-linejoin:round;stroke-dashoffset:1.4"
       d="m 103.47399,39.451056 c -9.937878,1.064845 -15.820544,10.288893 -23.186533,15.921738 -9.8896,9.042397 -20.758838,16.956947 -30.674216,25.945763 -5.992027,6.059264 -3.53105,16.901503 3.682673,20.890943 17.90827,12.81108 38.825878,21.92331 60.719596,24.87168 6.35953,1.25941 13.32235,-1.86226 15.57108,-8.17659 2.8849,-7.77038 -2.39899,-15.33464 -3.61377,-22.90189 -4.29957,-16.14439 -6.21859,-32.363233 -10.48918,-48.638486 -1.75371,-4.863871 -6.82096,-8.283992 -12.00965,-7.913158 z"
       id="path1981"
       transform="scale(0.26458)" />
  </g>
</svg>
